<?xml version="1.0" encoding="UTF-8"?><svg xmlns="http://www.w3.org/2000/svg" width="251" height="251" viewBox="0 0 251 251"><defs><style>.m{opacity:.85;}.m,.n,.o,.p{fill:#f6d5ea;}.m,.n,.o,.q{stroke-miterlimit:10;}.m,.o{stroke:#f6d5ea;}.n,.q{stroke:#a8498e;stroke-width:.2px;}.o{opacity:.9;}.r{fill:#a8498e;}.r,.p{stroke-width:0px;}.q{fill:none;}</style></defs><g id="a"><rect class="m" x=".5" y=".5" width="250" height="250"/></g><g id="b"><path class="q" d="m155.78,212.51c0,2.78-2.26,5.04-5.04,5.04s-5.04-2.26-5.04-5.04,2.26-5.04,5.04-5.04,5.04,2.26,5.04,5.04Zm-5.04,9.96c-2.78,0-5.04,2.26-5.04,5.04s2.26,5.04,5.04,5.04,5.04-2.26,5.04-5.04-2.26-5.04-5.04-5.04Z"/><path class="q" d="m141.95,212.45c0,2.78-2.26,5.04-5.04,5.04s-5.04-2.26-5.04-5.04,2.26-5.04,5.04-5.04,5.04,2.26,5.04,5.04Zm-5.04,9.96c-2.78,0-5.04,2.26-5.04,5.04s2.26,5.04,5.04,5.04,5.04-2.26,5.04-5.04-2.26-5.04-5.04-5.04Z"/><circle class="r" cx="144.37" cy="212.19" r="6.69"/><circle class="r" cx="151.89" cy="220.12" r="6.69"/><circle class="r" cx="136.43" cy="220.12" r="6.69"/><circle class="r" cx="144.37" cy="228.06" r="6.69"/><circle class="p" cx="144.37" cy="220.12" r="2.55"/><g id="c"><path class="r" d="m232.51,212.51c0,2.78-2.26,5.04-5.04,5.04s-5.04-2.26-5.04-5.04,2.26-5.04,5.04-5.04,5.04,2.26,5.04,5.04Zm-5.04,9.96c-2.78,0-5.04,2.26-5.04,5.04s2.26,5.04,5.04,5.04,5.04-2.26,5.04-5.04-2.26-5.04-5.04-5.04Z"/><path class="r" d="m218.68,212.45c0,2.78-2.26,5.04-5.04,5.04s-5.04-2.26-5.04-5.04,2.26-5.04,5.04-5.04,5.04,2.26,5.04,5.04Zm-5.04,9.96c-2.78,0-5.04,2.26-5.04,5.04s2.26,5.04,5.04,5.04,5.04-2.26,5.04-5.04-2.26-5.04-5.04-5.04Z"/><circle class="n" cx="221.11" cy="212.19" r="6.69"/><circle class="n" cx="228.62" cy="220.12" r="6.69"/><circle class="n" cx="213.16" cy="220.12" r="6.69"/><circle class="n" cx="221.11" cy="228.06" r="6.69"/><rect class="p" x="214.65" y="212.98" width="12.77" height="13.66"/><rect class="p" x="213.69" y="224.64" width="14.98" height="1.97"/><rect class="p" x="226.52" y="212.98" width="1.04" height="1.55"/><circle class="r" cx="221.11" cy="220.12" r="2.55"/></g><g id="d"><path class="r" d="m74.34,212.64c0,2.78-2.26,5.04-5.04,5.04s-5.04-2.26-5.04-5.04,2.26-5.04,5.04-5.04,5.04,2.26,5.04,5.04Zm-5.04,9.96c-2.78,0-5.04,2.26-5.04,5.04s2.26,5.04,5.04,5.04,5.04-2.26,5.04-5.04-2.26-5.04-5.04-5.04Z"/><path class="r" d="m60.51,212.58c0,2.78-2.26,5.04-5.04,5.04s-5.04-2.26-5.04-5.04,2.26-5.04,5.04-5.04,5.04,2.26,5.04,5.04Zm-5.04,9.96c-2.78,0-5.04,2.26-5.04,5.04s2.26,5.04,5.04,5.04,5.04-2.26,5.04-5.04-2.26-5.04-5.04-5.04Z"/><circle class="n" cx="62.93" cy="212.32" r="6.69"/><circle class="n" cx="70.45" cy="220.25" r="6.69"/><circle class="n" cx="54.99" cy="220.25" r="6.69"/><circle class="n" cx="62.93" cy="228.2" r="6.69"/><rect class="p" x="56.48" y="213.11" width="12.77" height="13.66"/><rect class="p" x="55.52" y="224.77" width="14.98" height="1.97"/><rect class="p" x="68.35" y="213.11" width="1.04" height="1.55"/><circle class="r" cx="62.93" cy="220.25" r="2.55"/></g><circle class="r" cx="100.89" cy="219.98" r="3.22"/><circle class="r" cx="182.6" cy="219.98" r="3.22"/><circle class="r" cx="18.91" cy="219.98" r="3.22"/></g><g id="e"><path class="q" d="m43.38,151.27c0,2.78-2.26,5.04-5.04,5.04s-5.04-2.26-5.04-5.04,2.26-5.04,5.04-5.04,5.04,2.26,5.04,5.04Zm-5.04,9.96c-2.78,0-5.04,2.26-5.04,5.04s2.26,5.04,5.04,5.04,5.04-2.26,5.04-5.04-2.26-5.04-5.04-5.04Z"/><path class="q" d="m29.55,151.21c0,2.78-2.26,5.04-5.04,5.04s-5.04-2.26-5.04-5.04,2.26-5.04,5.04-5.04,5.04,2.26,5.04,5.04Zm-5.04,9.96c-2.78,0-5.04,2.26-5.04,5.04s2.26,5.04,5.04,5.04,5.04-2.26,5.04-5.04-2.26-5.04-5.04-5.04Z"/><circle class="r" cx="31.98" cy="150.95" r="6.69"/><circle class="r" cx="39.49" cy="158.88" r="6.69"/><circle class="r" cx="24.03" cy="158.88" r="6.69"/><circle class="r" cx="31.98" cy="166.82" r="6.69"/><circle class="p" cx="31.98" cy="158.88" r="2.55"/><path class="q" d="m197.41,151.28c0,2.78-2.26,5.04-5.04,5.04s-5.04-2.26-5.04-5.04,2.26-5.04,5.04-5.04,5.04,2.26,5.04,5.04Zm-5.04,9.96c-2.78,0-5.04,2.26-5.04,5.04s2.26,5.04,5.04,5.04,5.04-2.26,5.04-5.04-2.26-5.04-5.04-5.04Z"/><path class="q" d="m183.58,151.21c0,2.78-2.26,5.04-5.04,5.04s-5.04-2.26-5.04-5.04,2.26-5.04,5.04-5.04,5.04,2.26,5.04,5.04Zm-5.04,9.96c-2.78,0-5.04,2.26-5.04,5.04s2.26,5.04,5.04,5.04,5.04-2.26,5.04-5.04-2.26-5.04-5.04-5.04Z"/><circle class="r" cx="186.01" cy="150.96" r="6.69"/><circle class="r" cx="193.52" cy="158.89" r="6.69"/><circle class="r" cx="178.06" cy="158.89" r="6.69"/><circle class="r" cx="186.01" cy="166.83" r="6.69"/><circle class="p" cx="186.01" cy="158.89" r="2.55"/><g id="f"><path class="r" d="m116.8,151.28c0,2.78-2.26,5.04-5.04,5.04s-5.04-2.26-5.04-5.04,2.26-5.04,5.04-5.04,5.04,2.26,5.04,5.04Zm-5.04,9.96c-2.78,0-5.04,2.26-5.04,5.04s2.26,5.04,5.04,5.04,5.04-2.26,5.04-5.04-2.26-5.04-5.04-5.04Z"/><path class="r" d="m102.97,151.21c0,2.78-2.26,5.04-5.04,5.04s-5.04-2.26-5.04-5.04,2.26-5.04,5.04-5.04,5.04,2.26,5.04,5.04Zm-5.04,9.96c-2.78,0-5.04,2.26-5.04,5.04s2.26,5.04,5.04,5.04,5.04-2.26,5.04-5.04-2.26-5.04-5.04-5.04Z"/><circle class="n" cx="105.4" cy="150.96" r="6.69"/><circle class="n" cx="112.91" cy="158.89" r="6.69"/><circle class="n" cx="97.45" cy="158.89" r="6.69"/><circle class="n" cx="105.4" cy="166.83" r="6.69"/><rect class="p" x="98.94" y="151.75" width="12.77" height="13.66"/><rect class="p" x="97.98" y="163.41" width="14.98" height="1.97"/><rect class="p" x="110.81" y="151.75" width="1.04" height="1.55"/><circle class="r" cx="105.4" cy="158.89" r="2.55"/></g><circle class="r" cx="68.91" cy="158.98" r="3.22"/><circle class="r" cx="144.94" cy="158.96" r="3.22"/><circle class="r" cx="230.44" cy="159.03" r="3.22"/></g><g id="g"><path class="q" d="m155.78,87.99c0,2.78-2.26,5.04-5.04,5.04s-5.04-2.26-5.04-5.04,2.26-5.04,5.04-5.04,5.04,2.26,5.04,5.04Zm-5.04,9.96c-2.78,0-5.04,2.26-5.04,5.04s2.26,5.04,5.04,5.04,5.04-2.26,5.04-5.04-2.26-5.04-5.04-5.04Z"/><path class="q" d="m141.95,87.92c0,2.78-2.26,5.04-5.04,5.04s-5.04-2.26-5.04-5.04,2.26-5.04,5.04-5.04,5.04,2.26,5.04,5.04Zm-5.04,9.96c-2.78,0-5.04,2.26-5.04,5.04s2.26,5.04,5.04,5.04,5.04-2.26,5.04-5.04-2.26-5.04-5.04-5.04Z"/><circle class="r" cx="144.37" cy="87.67" r="6.69"/><circle class="r" cx="151.89" cy="95.6" r="6.69"/><circle class="r" cx="136.43" cy="95.6" r="6.69"/><circle class="r" cx="144.37" cy="103.54" r="6.69"/><circle class="p" cx="144.37" cy="95.6" r="2.55"/><g id="h"><path class="r" d="m74.34,88.12c0,2.78-2.26,5.04-5.04,5.04s-5.04-2.26-5.04-5.04,2.26-5.04,5.04-5.04,5.04,2.26,5.04,5.04Zm-5.04,9.96c-2.78,0-5.04,2.26-5.04,5.04s2.26,5.04,5.04,5.04,5.04-2.26,5.04-5.04-2.26-5.04-5.04-5.04Z"/><path class="r" d="m60.51,88.05c0,2.78-2.26,5.04-5.04,5.04s-5.04-2.26-5.04-5.04,2.26-5.04,5.04-5.04,5.04,2.26,5.04,5.04Zm-5.04,9.96c-2.78,0-5.04,2.26-5.04,5.04s2.26,5.04,5.04,5.04,5.04-2.26,5.04-5.04-2.26-5.04-5.04-5.04Z"/><circle class="n" cx="62.93" cy="87.8" r="6.69"/><circle class="n" cx="70.45" cy="95.73" r="6.69"/><circle class="n" cx="54.99" cy="95.73" r="6.69"/><circle class="n" cx="62.93" cy="103.67" r="6.69"/><rect class="p" x="56.48" y="88.59" width="12.77" height="13.66"/><rect class="p" x="55.52" y="100.25" width="14.98" height="1.97"/><rect class="p" x="68.35" y="88.59" width="1.04" height="1.55"/><circle class="r" cx="62.93" cy="95.73" r="2.55"/></g><g id="i"><path class="r" d="m232.51,87.99c0,2.78-2.26,5.04-5.04,5.04s-5.04-2.26-5.04-5.04,2.26-5.04,5.04-5.04,5.04,2.26,5.04,5.04Zm-5.04,9.96c-2.78,0-5.04,2.26-5.04,5.04s2.26,5.04,5.04,5.04,5.04-2.26,5.04-5.04-2.26-5.04-5.04-5.04Z"/><path class="r" d="m218.68,87.92c0,2.78-2.26,5.04-5.04,5.04s-5.04-2.26-5.04-5.04,2.26-5.04,5.04-5.04,5.04,2.26,5.04,5.04Zm-5.04,9.96c-2.78,0-5.04,2.26-5.04,5.04s2.26,5.04,5.04,5.04,5.04-2.26,5.04-5.04-2.26-5.04-5.04-5.04Z"/><circle class="n" cx="221.11" cy="87.67" r="6.69"/><circle class="n" cx="228.62" cy="95.6" r="6.69"/><circle class="n" cx="213.16" cy="95.6" r="6.69"/><circle class="n" cx="221.11" cy="103.54" r="6.69"/><rect class="p" x="214.65" y="88.46" width="12.77" height="13.66"/><rect class="p" x="213.69" y="100.12" width="14.98" height="1.97"/><rect class="p" x="226.52" y="88.46" width="1.04" height="1.55"/><circle class="r" cx="221.11" cy="95.6" r="2.55"/></g><circle class="r" cx="100.89" cy="95.46" r="3.22"/><circle class="r" cx="182.6" cy="95.46" r="3.22"/><circle class="r" cx="18.91" cy="95.46" r="3.22"/></g><g id="j"><path class="q" d="m43.38,24.78c0,2.78-2.26,5.04-5.04,5.04s-5.04-2.26-5.04-5.04,2.26-5.04,5.04-5.04,5.04,2.26,5.04,5.04Zm-5.04,9.96c-2.78,0-5.04,2.26-5.04,5.04s2.26,5.04,5.04,5.04,5.04-2.26,5.04-5.04-2.26-5.04-5.04-5.04Z"/><path class="q" d="m29.55,24.71c0,2.78-2.26,5.04-5.04,5.04s-5.04-2.26-5.04-5.04,2.26-5.04,5.04-5.04,5.04,2.26,5.04,5.04Zm-5.04,9.96c-2.78,0-5.04,2.26-5.04,5.04s2.26,5.04,5.04,5.04,5.04-2.26,5.04-5.04-2.26-5.04-5.04-5.04Z"/><circle class="r" cx="31.98" cy="24.46" r="6.69"/><circle class="r" cx="39.49" cy="32.39" r="6.69"/><circle class="r" cx="24.03" cy="32.39" r="6.69"/><circle class="r" cx="31.98" cy="40.33" r="6.69"/><circle class="p" cx="31.98" cy="32.39" r="2.55"/><path class="q" d="m197.41,24.79c0,2.78-2.26,5.04-5.04,5.04s-5.04-2.26-5.04-5.04,2.26-5.04,5.04-5.04,5.04,2.26,5.04,5.04Zm-5.04,9.96c-2.78,0-5.04,2.26-5.04,5.04s2.26,5.04,5.04,5.04,5.04-2.26,5.04-5.04-2.26-5.04-5.04-5.04Z"/><path class="q" d="m183.58,24.72c0,2.78-2.26,5.04-5.04,5.04s-5.04-2.26-5.04-5.04,2.26-5.04,5.04-5.04,5.04,2.26,5.04,5.04Zm-5.04,9.96c-2.78,0-5.04,2.26-5.04,5.04s2.26,5.04,5.04,5.04,5.04-2.26,5.04-5.04-2.26-5.04-5.04-5.04Z"/><circle class="r" cx="186.01" cy="24.47" r="6.69"/><circle class="r" cx="193.52" cy="32.39" r="6.69"/><circle class="r" cx="178.06" cy="32.39" r="6.69"/><circle class="r" cx="186.01" cy="40.34" r="6.69"/><circle class="p" cx="186.01" cy="32.39" r="2.55"/><g id="k"><path class="r" d="m116.8,24.79c0,2.78-2.26,5.04-5.04,5.04s-5.04-2.26-5.04-5.04,2.26-5.04,5.04-5.04,5.04,2.26,5.04,5.04Zm-5.04,9.96c-2.78,0-5.04,2.26-5.04,5.04s2.26,5.04,5.04,5.04,5.04-2.26,5.04-5.04-2.26-5.04-5.04-5.04Z"/><path class="r" d="m102.97,24.72c0,2.78-2.26,5.04-5.04,5.04s-5.04-2.26-5.04-5.04,2.26-5.04,5.04-5.04,5.04,2.26,5.04,5.04Zm-5.04,9.96c-2.78,0-5.04,2.26-5.04,5.04s2.26,5.04,5.04,5.04,5.04-2.26,5.04-5.04-2.26-5.04-5.04-5.04Z"/><circle class="n" cx="105.4" cy="24.47" r="6.69"/><circle class="n" cx="112.91" cy="32.39" r="6.69"/><circle class="n" cx="97.45" cy="32.39" r="6.69"/><circle class="n" cx="105.4" cy="40.34" r="6.69"/><rect class="p" x="98.94" y="25.25" width="12.77" height="13.66"/><rect class="p" x="97.98" y="36.91" width="14.98" height="1.97"/><rect class="p" x="110.81" y="25.25" width="1.04" height="1.55"/><circle class="r" cx="105.4" cy="32.39" r="2.55"/></g><circle class="r" cx="68.91" cy="32.49" r="3.22"/><circle class="r" cx="144.94" cy="32.46" r="3.22"/><circle class="r" cx="230.44" cy="32.53" r="3.22"/></g><g id="l"><rect class="o" x=".5" y=".5" width="250" height="250"/></g></svg>