<?xml version="1.0" encoding="utf-8"?>
<!-- Generator: Adobe Illustrator 27.8.1, SVG Export Plug-In . SVG Version: 6.00 Build 0)  -->
<svg version="1.1" id="Layer_1" xmlns="http://www.w3.org/2000/svg" xmlns:xlink="http://www.w3.org/1999/xlink" x="0px" y="0px"
	 viewBox="0 0 24 24" style="enable-background:new 0 0 24 24;" xml:space="preserve">
<path class="st0" d="M19.4,20.5c-1.9,0-3.8-0.4-5.7-1.3c-1.9-0.9-3.7-2.1-5.2-3.7c-1.6-1.6-2.8-3.3-3.7-5.2C3.9,8.3,3.5,6.4,3.5,4.6
	c0-0.3,0.1-0.6,0.3-0.8C4,3.6,4.3,3.5,4.6,3.5h3.3c0.3,0,0.5,0.1,0.7,0.2c0.2,0.2,0.3,0.4,0.4,0.6l0.6,2.9c0,0.3,0,0.5,0,0.7
	C9.3,8.2,9.2,8.4,9.1,8.5l-2.3,2.2c0.4,0.7,0.8,1.3,1.3,1.9c0.5,0.6,1,1.2,1.6,1.7c0.5,0.5,1.1,1.1,1.8,1.5c0.6,0.5,1.3,0.9,2,1.3
	l2.2-2.3c0.2-0.2,0.3-0.3,0.6-0.3c0.2-0.1,0.5-0.1,0.7,0l2.8,0.6c0.3,0.1,0.5,0.2,0.6,0.4c0.2,0.2,0.2,0.4,0.2,0.7v3.2
	c0,0.3-0.1,0.5-0.3,0.8C20,20.4,19.7,20.5,19.4,20.5z"/>
</svg>
